<mxfile host="app.diagrams.net" modified="2024-03-28T23:24:37.289Z" agent="Mozilla/5.0 (Macintosh; Intel Mac OS X 10_15_7) AppleWebKit/537.36 (KHTML, like Gecko) Chrome/123.0.0.0 Safari/537.36" etag="8rCq7VETnPDWyTRUhnF-" version="24.0.7" type="github">
  <diagram id="9fnjXT7nlAm7Ix4f8WDv" name="Page-1">
    <mxGraphModel dx="-575" dy="1520" grid="0" gridSize="10" guides="1" tooltips="1" connect="1" arrows="1" fold="1" page="1" pageScale="1" pageWidth="1310" pageHeight="250" background="#EFF1F3" math="0" shadow="0">
      <root>
        <mxCell id="0" />
        <mxCell id="1" parent="0" />
        <mxCell id="iJiPLEONd4pb6N0wiYaS-39" value="" style="rounded=1;whiteSpace=wrap;html=1;fillColor=none;strokeColor=#416997;strokeWidth=2;dashed=1;" parent="1" vertex="1">
          <mxGeometry x="1385" y="18" width="1160" height="667" as="geometry" />
        </mxCell>
        <mxCell id="qtAHDF-vXk4XrOakRFS1-4" value="&lt;font color=&quot;#4a909b&quot;&gt;&lt;span style=&quot;font-size: 23px;&quot;&gt;用户管理服务&lt;/span&gt;&lt;/font&gt;" style="text;html=1;strokeColor=none;fillColor=none;align=center;verticalAlign=middle;whiteSpace=wrap;rounded=0;" parent="1" vertex="1">
          <mxGeometry x="1615" y="409" width="146" height="30" as="geometry" />
        </mxCell>
        <mxCell id="qtAHDF-vXk4XrOakRFS1-5" value="&lt;font color=&quot;#4a909b&quot; style=&quot;font-size: 23px;&quot;&gt;公众号：小白debug&lt;/font&gt;&lt;div&gt;&lt;font color=&quot;#4a909b&quot; style=&quot;font-size: 23px;&quot;&gt;golangguide.top&lt;/font&gt;&lt;/div&gt;" style="text;html=1;strokeColor=none;fillColor=none;align=center;verticalAlign=middle;whiteSpace=wrap;rounded=0;fontSize=16;textOpacity=60;" parent="1" vertex="1">
          <mxGeometry x="1861" y="71" width="282" height="30" as="geometry" />
        </mxCell>
        <mxCell id="iJiPLEONd4pb6N0wiYaS-3" value="" style="shape=image;verticalLabelPosition=bottom;labelBackgroundColor=default;verticalAlign=top;aspect=fixed;imageAspect=0;image=data:image/svg+xml,PHN2ZyB4bWxuczp4bGluaz0iaHR0cDovL3d3dy53My5vcmcvMTk5OS94bGluayIgeG1sbnM9Imh0dHA6Ly93d3cudzMub3JnLzIwMDAvc3ZnIiBoZWlnaHQ9IjQ4IiB3aWR0aD0iNDgiIHZlcnNpb249IjEuMSIgdmlld0JveD0iMCAwIDEwMjQgMTAyNCIgY2xhc3M9Imljb24iPjxwYXRoIGZpbGw9IiMyOTkzOWQiIGQ9Ik01MTEuODUwMDQ0IDAuMjk5OTEyQzIyOS4zMzI4MTMgMC4yOTk5MTIgMC4yOTk5MTIgMTA3LjU2ODQ4NiAwIDIzOS45Mjk3MDh2NTQ0LjE0MDU4NGMwIDEzMi40NjExOTMgMjI5LjEzMjg3MSAyMzkuOTI5NzA4IDUxMS44NTAwNDQgMjM5LjkyOTcwOHM1MTEuODUwMDQ0LTEwNy40Njg1MTUgNTExLjg1MDA0NC0yMzkuOTI5NzA4VjIzOS45Mjk3MDhDMTAyMy40MDAxNzYgMTA3LjU2ODQ4NiA3OTQuMzY3Mjc1IDAuMjk5OTEyIDUxMS44NTAwNDQgMC4yOTk5MTJ6TTE2Ny45NTA3OTYgODk1LjczNzU3N2MtMjIuMDkzNTI3IDAtMzkuOTg4Mjg1LTE3Ljg5NDc1Ny0zOS45ODgyODUtMzkuOTg4Mjg1czE3Ljg5NDc1Ny0zOS45ODgyODUgMzkuOTg4Mjg1LTM5Ljk4ODI4NCAzOS45ODgyODUgMTcuODk0NzU3IDM5Ljk4ODI4NCAzOS45ODgyODQtMTcuODk0NzU3IDM5Ljk4ODI4NS0zOS45ODgyODQgMzkuOTg4Mjg1eiBtNzkxLjc2ODAzNi0xODguNjQ0NzMzYy0xNy44OTQ3NTcgMTEuNDk2NjMyLTM3LjQ4OTAxNyAyMi4xOTM0OTgtNTguNzgyNzc4IDMyLjE5MDU2OS0xMDQuOTY5MjQ3IDQ5LjE4NTU5LTI0My4yMjg3NDIgNzYuMjc3NjUzLTM4OS4wODYwMSA3Ni4yNzc2NTNzLTI4NC4xMTY3NjMtMjcuMDkyMDYzLTM4OS4wODYwMS03Ni4yNzc2NTNjLTIxLjI5Mzc2Mi05Ljk5NzA3MS00MC44ODgwMjEtMjAuNjkzOTM3LTU4Ljc4Mjc3OS0zMi4xOTA1Njl2LTc5LjE3NjgwNGM4Ny4yNzQ0MzEgNzMuNzc4Mzg1IDI1NS4xMjUyNTYgMTIzLjY2Mzc3IDQ0Ny44Njg3ODkgMTIzLjY2Mzc3MXMzNjAuNTk0MzU3LTQ5Ljg4NTM4NSA0NDcuODY4Nzg4LTEyMy42NjM3NzF2NzkuMTc2ODA0ek0xMjcuOTYyNTExIDU4My44Mjg5NTZjMC0yMi4wOTM1MjcgMTcuODk0NzU3LTM5Ljk4ODI4NSAzOS45ODgyODUtMzkuOTg4Mjg0czM5Ljk4ODI4NSAxNy44OTQ3NTcgMzkuOTg4Mjg0IDM5Ljk4ODI4NC0xNy44OTQ3NTcgMzkuOTg4Mjg1LTM5Ljk4ODI4NCAzOS45ODgyODUtMzkuOTg4Mjg1LTE3Ljg5NDc1Ny0zOS45ODgyODUtMzkuOTg4Mjg1eiBtODMxLjc1NjMyMS0xNDguMTU2NTk0Yy0xNy44OTQ3NTcgMTEuNDk2NjMyLTM3LjQ4OTAxNyAyMi4xOTM0OTgtNTguNzgyNzc4IDMyLjE5MDU2OS0xMDQuOTY5MjQ3IDQ5LjE4NTU5LTI0My4yMjg3NDIgNzYuMjc3NjUzLTM4OS4wODYwMSA3Ni4yNzc2NTNTMjI3LjczMzI4MSA1MTcuMDQ4NTIxIDEyMi43NjQwMzQgNDY3Ljg2MjkzMWMtMjEuMjkzNzYyLTkuOTk3MDcxLTQwLjg4ODAyMS0yMC42OTM5MzctNTguNzgyNzc5LTMyLjE5MDU2OXYtNzkuMTc2ODA0Yzg3LjI3NDQzMSA3My43NzgzODUgMjU1LjEyNTI1NiAxMjMuNjYzNzcgNDQ3Ljg2ODc4OSAxMjMuNjYzNzdzMzYwLjU5NDM1Ny00OS44ODUzODUgNDQ3Ljg2ODc4OC0xMjMuNjYzNzd2NzkuMTc2ODA0eiIvPjwvc3ZnPg==;" parent="1" vertex="1">
          <mxGeometry x="1732" y="498" width="112" height="112" as="geometry" />
        </mxCell>
        <mxCell id="iJiPLEONd4pb6N0wiYaS-4" value="&lt;font color=&quot;#4a909b&quot;&gt;&lt;span style=&quot;font-size: 23px;&quot;&gt;用户数据&lt;/span&gt;&lt;/font&gt;" style="text;html=1;strokeColor=none;fillColor=none;align=center;verticalAlign=middle;whiteSpace=wrap;rounded=0;" parent="1" vertex="1">
          <mxGeometry x="1715" y="620" width="146" height="30" as="geometry" />
        </mxCell>
        <mxCell id="iJiPLEONd4pb6N0wiYaS-29" style="edgeStyle=orthogonalEdgeStyle;rounded=0;orthogonalLoop=1;jettySize=auto;html=1;exitX=0.5;exitY=1;exitDx=0;exitDy=0;entryX=0.5;entryY=0;entryDx=0;entryDy=0;strokeWidth=3;strokeColor=#29939D;" parent="1" source="iJiPLEONd4pb6N0wiYaS-6" target="iJiPLEONd4pb6N0wiYaS-3" edge="1">
          <mxGeometry relative="1" as="geometry" />
        </mxCell>
        <mxCell id="iJiPLEONd4pb6N0wiYaS-6" value="" style="shape=image;verticalLabelPosition=bottom;labelBackgroundColor=default;verticalAlign=top;aspect=fixed;imageAspect=0;image=data:image/svg+xml,PHN2ZyB4bWxuczp4bGluaz0iaHR0cDovL3d3dy53My5vcmcvMTk5OS94bGluayIgeG1sbnM9Imh0dHA6Ly93d3cudzMub3JnLzIwMDAvc3ZnIiBoZWlnaHQ9IjQ4IiB3aWR0aD0iNDgiIHZlcnNpb249IjEuMSIgdmlld0JveD0iMCAwIDEwMjQgMTAyNCIgY2xhc3M9Imljb24iPjxwYXRoIGZpbGw9IiMyOTkzOWQiIGQ9Ik0xNzkuMiA3MDUuMjhWMzQxLjk1MmwtODMuMi00Ni40djQ1Ni4yNTZsNDA0LjA5NiAyMjQuMjU2Vjg4My4yTDE3OS4yIDcwNS4yOHogbTMyMC44OTYgODUuMTJWNTIzLjU4NEwyNjIuNCAzODguMjg4djI3MC42NTZsMjM3LjY5NiAxMzEuNDU2ek01MTIgMTQwLjhsMzIwLjg5NiAxODEuNzYgODMuMi00Ni40TDUxMiA0OCAxMDcuOTA0IDI3Ni4xNmw4My4yIDQ2LjRMNTEyIDE0MC44eiBtMjM3LjY5NiAyMjguMTZMNTEyIDIzMy42IDI3NC4zMDQgMzY4Ljk2IDUxMiA1MDQuMjU2bDIzNy42OTYtMTM1LjI5NnpNNTIzLjkwNCA3OTQuMjRsMjM3LjY5Ni0xMzUuMjk2di05Mi44bC0xNjIuNDMyIDkyLjh2LTkyLjhMODQ0LjggNDI2Ljg4djI3OC40TDUyMy45MDQgODgzLjJ2OTIuOGw0MDQuMDk2LTIyNC4yNTZ2LTQ1Ni4zMkw1MjMuOTA0IDUyMy42NDh2MjcwLjcyeiIvPjwvc3ZnPg==;" parent="1" vertex="1">
          <mxGeometry x="1717.78" y="294" width="140.43" height="140.43" as="geometry" />
        </mxCell>
        <mxCell id="iJiPLEONd4pb6N0wiYaS-7" value="&lt;font color=&quot;#4a909b&quot;&gt;&lt;span style=&quot;font-size: 23px;&quot;&gt;购物车服务&lt;/span&gt;&lt;/font&gt;" style="text;html=1;strokeColor=none;fillColor=none;align=center;verticalAlign=middle;whiteSpace=wrap;rounded=0;" parent="1" vertex="1">
          <mxGeometry x="1829" y="409" width="146" height="30" as="geometry" />
        </mxCell>
        <mxCell id="iJiPLEONd4pb6N0wiYaS-8" value="" style="shape=image;verticalLabelPosition=bottom;labelBackgroundColor=default;verticalAlign=top;aspect=fixed;imageAspect=0;image=data:image/svg+xml,PHN2ZyB4bWxuczp4bGluaz0iaHR0cDovL3d3dy53My5vcmcvMTk5OS94bGluayIgeG1sbnM9Imh0dHA6Ly93d3cudzMub3JnLzIwMDAvc3ZnIiBoZWlnaHQ9IjQ4IiB3aWR0aD0iNDgiIHZlcnNpb249IjEuMSIgdmlld0JveD0iMCAwIDEwMjQgMTAyNCIgY2xhc3M9Imljb24iPjxwYXRoIGZpbGw9IiMyOTkzOWQiIGQ9Ik01MTEuODUwMDQ0IDAuMjk5OTEyQzIyOS4zMzI4MTMgMC4yOTk5MTIgMC4yOTk5MTIgMTA3LjU2ODQ4NiAwIDIzOS45Mjk3MDh2NTQ0LjE0MDU4NGMwIDEzMi40NjExOTMgMjI5LjEzMjg3MSAyMzkuOTI5NzA4IDUxMS44NTAwNDQgMjM5LjkyOTcwOHM1MTEuODUwMDQ0LTEwNy40Njg1MTUgNTExLjg1MDA0NC0yMzkuOTI5NzA4VjIzOS45Mjk3MDhDMTAyMy40MDAxNzYgMTA3LjU2ODQ4NiA3OTQuMzY3Mjc1IDAuMjk5OTEyIDUxMS44NTAwNDQgMC4yOTk5MTJ6TTE2Ny45NTA3OTYgODk1LjczNzU3N2MtMjIuMDkzNTI3IDAtMzkuOTg4Mjg1LTE3Ljg5NDc1Ny0zOS45ODgyODUtMzkuOTg4Mjg1czE3Ljg5NDc1Ny0zOS45ODgyODUgMzkuOTg4Mjg1LTM5Ljk4ODI4NCAzOS45ODgyODUgMTcuODk0NzU3IDM5Ljk4ODI4NCAzOS45ODgyODQtMTcuODk0NzU3IDM5Ljk4ODI4NS0zOS45ODgyODQgMzkuOTg4Mjg1eiBtNzkxLjc2ODAzNi0xODguNjQ0NzMzYy0xNy44OTQ3NTcgMTEuNDk2NjMyLTM3LjQ4OTAxNyAyMi4xOTM0OTgtNTguNzgyNzc4IDMyLjE5MDU2OS0xMDQuOTY5MjQ3IDQ5LjE4NTU5LTI0My4yMjg3NDIgNzYuMjc3NjUzLTM4OS4wODYwMSA3Ni4yNzc2NTNzLTI4NC4xMTY3NjMtMjcuMDkyMDYzLTM4OS4wODYwMS03Ni4yNzc2NTNjLTIxLjI5Mzc2Mi05Ljk5NzA3MS00MC44ODgwMjEtMjAuNjkzOTM3LTU4Ljc4Mjc3OS0zMi4xOTA1Njl2LTc5LjE3NjgwNGM4Ny4yNzQ0MzEgNzMuNzc4Mzg1IDI1NS4xMjUyNTYgMTIzLjY2Mzc3IDQ0Ny44Njg3ODkgMTIzLjY2Mzc3MXMzNjAuNTk0MzU3LTQ5Ljg4NTM4NSA0NDcuODY4Nzg4LTEyMy42NjM3NzF2NzkuMTc2ODA0ek0xMjcuOTYyNTExIDU4My44Mjg5NTZjMC0yMi4wOTM1MjcgMTcuODk0NzU3LTM5Ljk4ODI4NSAzOS45ODgyODUtMzkuOTg4Mjg0czM5Ljk4ODI4NSAxNy44OTQ3NTcgMzkuOTg4Mjg0IDM5Ljk4ODI4NC0xNy44OTQ3NTcgMzkuOTg4Mjg1LTM5Ljk4ODI4NCAzOS45ODgyODUtMzkuOTg4Mjg1LTE3Ljg5NDc1Ny0zOS45ODgyODUtMzkuOTg4Mjg1eiBtODMxLjc1NjMyMS0xNDguMTU2NTk0Yy0xNy44OTQ3NTcgMTEuNDk2NjMyLTM3LjQ4OTAxNyAyMi4xOTM0OTgtNTguNzgyNzc4IDMyLjE5MDU2OS0xMDQuOTY5MjQ3IDQ5LjE4NTU5LTI0My4yMjg3NDIgNzYuMjc3NjUzLTM4OS4wODYwMSA3Ni4yNzc2NTNTMjI3LjczMzI4MSA1MTcuMDQ4NTIxIDEyMi43NjQwMzQgNDY3Ljg2MjkzMWMtMjEuMjkzNzYyLTkuOTk3MDcxLTQwLjg4ODAyMS0yMC42OTM5MzctNTguNzgyNzc5LTMyLjE5MDU2OXYtNzkuMTc2ODA0Yzg3LjI3NDQzMSA3My43NzgzODUgMjU1LjEyNTI1NiAxMjMuNjYzNzcgNDQ3Ljg2ODc4OSAxMjMuNjYzNzdzMzYwLjU5NDM1Ny00OS44ODUzODUgNDQ3Ljg2ODc4OC0xMjMuNjYzNzd2NzkuMTc2ODA0eiIvPjwvc3ZnPg==;" parent="1" vertex="1">
          <mxGeometry x="1933" y="498" width="112" height="112" as="geometry" />
        </mxCell>
        <mxCell id="iJiPLEONd4pb6N0wiYaS-9" value="&lt;font color=&quot;#4a909b&quot;&gt;&lt;span style=&quot;font-size: 23px;&quot;&gt;购物车数据&lt;/span&gt;&lt;/font&gt;" style="text;html=1;strokeColor=none;fillColor=none;align=center;verticalAlign=middle;whiteSpace=wrap;rounded=0;" parent="1" vertex="1">
          <mxGeometry x="1916" y="620" width="146" height="30" as="geometry" />
        </mxCell>
        <mxCell id="iJiPLEONd4pb6N0wiYaS-30" style="edgeStyle=orthogonalEdgeStyle;rounded=0;orthogonalLoop=1;jettySize=auto;html=1;exitX=0.5;exitY=1;exitDx=0;exitDy=0;entryX=0.5;entryY=0;entryDx=0;entryDy=0;strokeWidth=3;strokeColor=#29939D;" parent="1" source="iJiPLEONd4pb6N0wiYaS-10" target="iJiPLEONd4pb6N0wiYaS-8" edge="1">
          <mxGeometry relative="1" as="geometry" />
        </mxCell>
        <mxCell id="iJiPLEONd4pb6N0wiYaS-10" value="" style="shape=image;verticalLabelPosition=bottom;labelBackgroundColor=default;verticalAlign=top;aspect=fixed;imageAspect=0;image=data:image/svg+xml,PHN2ZyB4bWxuczp4bGluaz0iaHR0cDovL3d3dy53My5vcmcvMTk5OS94bGluayIgeG1sbnM9Imh0dHA6Ly93d3cudzMub3JnLzIwMDAvc3ZnIiBoZWlnaHQ9IjQ4IiB3aWR0aD0iNDgiIHZlcnNpb249IjEuMSIgdmlld0JveD0iMCAwIDEwMjQgMTAyNCIgY2xhc3M9Imljb24iPjxwYXRoIGZpbGw9IiMyOTkzOWQiIGQ9Ik0xNzkuMiA3MDUuMjhWMzQxLjk1MmwtODMuMi00Ni40djQ1Ni4yNTZsNDA0LjA5NiAyMjQuMjU2Vjg4My4yTDE3OS4yIDcwNS4yOHogbTMyMC44OTYgODUuMTJWNTIzLjU4NEwyNjIuNCAzODguMjg4djI3MC42NTZsMjM3LjY5NiAxMzEuNDU2ek01MTIgMTQwLjhsMzIwLjg5NiAxODEuNzYgODMuMi00Ni40TDUxMiA0OCAxMDcuOTA0IDI3Ni4xNmw4My4yIDQ2LjRMNTEyIDE0MC44eiBtMjM3LjY5NiAyMjguMTZMNTEyIDIzMy42IDI3NC4zMDQgMzY4Ljk2IDUxMiA1MDQuMjU2bDIzNy42OTYtMTM1LjI5NnpNNTIzLjkwNCA3OTQuMjRsMjM3LjY5Ni0xMzUuMjk2di05Mi44bC0xNjIuNDMyIDkyLjh2LTkyLjhMODQ0LjggNDI2Ljg4djI3OC40TDUyMy45MDQgODgzLjJ2OTIuOGw0MDQuMDk2LTIyNC4yNTZ2LTQ1Ni4zMkw1MjMuOTA0IDUyMy42NDh2MjcwLjcyeiIvPjwvc3ZnPg==;" parent="1" vertex="1">
          <mxGeometry x="1918.7799999999997" y="294" width="140.43" height="140.43" as="geometry" />
        </mxCell>
        <mxCell id="iJiPLEONd4pb6N0wiYaS-11" value="&lt;font color=&quot;#4a909b&quot;&gt;&lt;span style=&quot;font-size: 23px;&quot;&gt;订单服务&lt;/span&gt;&lt;/font&gt;" style="text;html=1;strokeColor=none;fillColor=none;align=center;verticalAlign=middle;whiteSpace=wrap;rounded=0;" parent="1" vertex="1">
          <mxGeometry x="2049" y="404.43" width="146" height="30" as="geometry" />
        </mxCell>
        <mxCell id="iJiPLEONd4pb6N0wiYaS-12" value="" style="shape=image;verticalLabelPosition=bottom;labelBackgroundColor=default;verticalAlign=top;aspect=fixed;imageAspect=0;image=data:image/svg+xml,PHN2ZyB4bWxuczp4bGluaz0iaHR0cDovL3d3dy53My5vcmcvMTk5OS94bGluayIgeG1sbnM9Imh0dHA6Ly93d3cudzMub3JnLzIwMDAvc3ZnIiBoZWlnaHQ9IjQ4IiB3aWR0aD0iNDgiIHZlcnNpb249IjEuMSIgdmlld0JveD0iMCAwIDEwMjQgMTAyNCIgY2xhc3M9Imljb24iPjxwYXRoIGZpbGw9IiMyOTkzOWQiIGQ9Ik01MTEuODUwMDQ0IDAuMjk5OTEyQzIyOS4zMzI4MTMgMC4yOTk5MTIgMC4yOTk5MTIgMTA3LjU2ODQ4NiAwIDIzOS45Mjk3MDh2NTQ0LjE0MDU4NGMwIDEzMi40NjExOTMgMjI5LjEzMjg3MSAyMzkuOTI5NzA4IDUxMS44NTAwNDQgMjM5LjkyOTcwOHM1MTEuODUwMDQ0LTEwNy40Njg1MTUgNTExLjg1MDA0NC0yMzkuOTI5NzA4VjIzOS45Mjk3MDhDMTAyMy40MDAxNzYgMTA3LjU2ODQ4NiA3OTQuMzY3Mjc1IDAuMjk5OTEyIDUxMS44NTAwNDQgMC4yOTk5MTJ6TTE2Ny45NTA3OTYgODk1LjczNzU3N2MtMjIuMDkzNTI3IDAtMzkuOTg4Mjg1LTE3Ljg5NDc1Ny0zOS45ODgyODUtMzkuOTg4Mjg1czE3Ljg5NDc1Ny0zOS45ODgyODUgMzkuOTg4Mjg1LTM5Ljk4ODI4NCAzOS45ODgyODUgMTcuODk0NzU3IDM5Ljk4ODI4NCAzOS45ODgyODQtMTcuODk0NzU3IDM5Ljk4ODI4NS0zOS45ODgyODQgMzkuOTg4Mjg1eiBtNzkxLjc2ODAzNi0xODguNjQ0NzMzYy0xNy44OTQ3NTcgMTEuNDk2NjMyLTM3LjQ4OTAxNyAyMi4xOTM0OTgtNTguNzgyNzc4IDMyLjE5MDU2OS0xMDQuOTY5MjQ3IDQ5LjE4NTU5LTI0My4yMjg3NDIgNzYuMjc3NjUzLTM4OS4wODYwMSA3Ni4yNzc2NTNzLTI4NC4xMTY3NjMtMjcuMDkyMDYzLTM4OS4wODYwMS03Ni4yNzc2NTNjLTIxLjI5Mzc2Mi05Ljk5NzA3MS00MC44ODgwMjEtMjAuNjkzOTM3LTU4Ljc4Mjc3OS0zMi4xOTA1Njl2LTc5LjE3NjgwNGM4Ny4yNzQ0MzEgNzMuNzc4Mzg1IDI1NS4xMjUyNTYgMTIzLjY2Mzc3IDQ0Ny44Njg3ODkgMTIzLjY2Mzc3MXMzNjAuNTk0MzU3LTQ5Ljg4NTM4NSA0NDcuODY4Nzg4LTEyMy42NjM3NzF2NzkuMTc2ODA0ek0xMjcuOTYyNTExIDU4My44Mjg5NTZjMC0yMi4wOTM1MjcgMTcuODk0NzU3LTM5Ljk4ODI4NSAzOS45ODgyODUtMzkuOTg4Mjg0czM5Ljk4ODI4NSAxNy44OTQ3NTcgMzkuOTg4Mjg0IDM5Ljk4ODI4NC0xNy44OTQ3NTcgMzkuOTg4Mjg1LTM5Ljk4ODI4NCAzOS45ODgyODUtMzkuOTg4Mjg1LTE3Ljg5NDc1Ny0zOS45ODgyODUtMzkuOTg4Mjg1eiBtODMxLjc1NjMyMS0xNDguMTU2NTk0Yy0xNy44OTQ3NTcgMTEuNDk2NjMyLTM3LjQ4OTAxNyAyMi4xOTM0OTgtNTguNzgyNzc4IDMyLjE5MDU2OS0xMDQuOTY5MjQ3IDQ5LjE4NTU5LTI0My4yMjg3NDIgNzYuMjc3NjUzLTM4OS4wODYwMSA3Ni4yNzc2NTNTMjI3LjczMzI4MSA1MTcuMDQ4NTIxIDEyMi43NjQwMzQgNDY3Ljg2MjkzMWMtMjEuMjkzNzYyLTkuOTk3MDcxLTQwLjg4ODAyMS0yMC42OTM5MzctNTguNzgyNzc5LTMyLjE5MDU2OXYtNzkuMTc2ODA0Yzg3LjI3NDQzMSA3My43NzgzODUgMjU1LjEyNTI1NiAxMjMuNjYzNzcgNDQ3Ljg2ODc4OSAxMjMuNjYzNzdzMzYwLjU5NDM1Ny00OS44ODUzODUgNDQ3Ljg2ODc4OC0xMjMuNjYzNzd2NzkuMTc2ODA0eiIvPjwvc3ZnPg==;" parent="1" vertex="1">
          <mxGeometry x="2148" y="498" width="112" height="112" as="geometry" />
        </mxCell>
        <mxCell id="iJiPLEONd4pb6N0wiYaS-13" value="&lt;font color=&quot;#4a909b&quot;&gt;&lt;span style=&quot;font-size: 23px;&quot;&gt;订单数据&lt;/span&gt;&lt;/font&gt;" style="text;html=1;strokeColor=none;fillColor=none;align=center;verticalAlign=middle;whiteSpace=wrap;rounded=0;" parent="1" vertex="1">
          <mxGeometry x="2131" y="620" width="146" height="30" as="geometry" />
        </mxCell>
        <mxCell id="iJiPLEONd4pb6N0wiYaS-31" style="edgeStyle=orthogonalEdgeStyle;rounded=0;orthogonalLoop=1;jettySize=auto;html=1;exitX=0.5;exitY=1;exitDx=0;exitDy=0;entryX=0.5;entryY=0;entryDx=0;entryDy=0;strokeWidth=3;strokeColor=#29939D;" parent="1" source="iJiPLEONd4pb6N0wiYaS-14" target="iJiPLEONd4pb6N0wiYaS-12" edge="1">
          <mxGeometry relative="1" as="geometry" />
        </mxCell>
        <mxCell id="iJiPLEONd4pb6N0wiYaS-14" value="" style="shape=image;verticalLabelPosition=bottom;labelBackgroundColor=default;verticalAlign=top;aspect=fixed;imageAspect=0;image=data:image/svg+xml,PHN2ZyB4bWxuczp4bGluaz0iaHR0cDovL3d3dy53My5vcmcvMTk5OS94bGluayIgeG1sbnM9Imh0dHA6Ly93d3cudzMub3JnLzIwMDAvc3ZnIiBoZWlnaHQ9IjQ4IiB3aWR0aD0iNDgiIHZlcnNpb249IjEuMSIgdmlld0JveD0iMCAwIDEwMjQgMTAyNCIgY2xhc3M9Imljb24iPjxwYXRoIGZpbGw9IiMyOTkzOWQiIGQ9Ik0xNzkuMiA3MDUuMjhWMzQxLjk1MmwtODMuMi00Ni40djQ1Ni4yNTZsNDA0LjA5NiAyMjQuMjU2Vjg4My4yTDE3OS4yIDcwNS4yOHogbTMyMC44OTYgODUuMTJWNTIzLjU4NEwyNjIuNCAzODguMjg4djI3MC42NTZsMjM3LjY5NiAxMzEuNDU2ek01MTIgMTQwLjhsMzIwLjg5NiAxODEuNzYgODMuMi00Ni40TDUxMiA0OCAxMDcuOTA0IDI3Ni4xNmw4My4yIDQ2LjRMNTEyIDE0MC44eiBtMjM3LjY5NiAyMjguMTZMNTEyIDIzMy42IDI3NC4zMDQgMzY4Ljk2IDUxMiA1MDQuMjU2bDIzNy42OTYtMTM1LjI5NnpNNTIzLjkwNCA3OTQuMjRsMjM3LjY5Ni0xMzUuMjk2di05Mi44bC0xNjIuNDMyIDkyLjh2LTkyLjhMODQ0LjggNDI2Ljg4djI3OC40TDUyMy45MDQgODgzLjJ2OTIuOGw0MDQuMDk2LTIyNC4yNTZ2LTQ1Ni4zMkw1MjMuOTA0IDUyMy42NDh2MjcwLjcyeiIvPjwvc3ZnPg==;" parent="1" vertex="1">
          <mxGeometry x="2133.7799999999997" y="294" width="140.43" height="140.43" as="geometry" />
        </mxCell>
        <mxCell id="iJiPLEONd4pb6N0wiYaS-15" value="&lt;font color=&quot;#4a909b&quot;&gt;&lt;span style=&quot;font-size: 23px;&quot;&gt;推荐服务&lt;/span&gt;&lt;/font&gt;" style="text;html=1;strokeColor=none;fillColor=none;align=center;verticalAlign=middle;whiteSpace=wrap;rounded=0;" parent="1" vertex="1">
          <mxGeometry x="2260" y="404.43" width="146" height="30" as="geometry" />
        </mxCell>
        <mxCell id="iJiPLEONd4pb6N0wiYaS-16" value="" style="shape=image;verticalLabelPosition=bottom;labelBackgroundColor=default;verticalAlign=top;aspect=fixed;imageAspect=0;image=data:image/svg+xml,PHN2ZyB4bWxuczp4bGluaz0iaHR0cDovL3d3dy53My5vcmcvMTk5OS94bGluayIgeG1sbnM9Imh0dHA6Ly93d3cudzMub3JnLzIwMDAvc3ZnIiBoZWlnaHQ9IjQ4IiB3aWR0aD0iNDgiIHZlcnNpb249IjEuMSIgdmlld0JveD0iMCAwIDEwMjQgMTAyNCIgY2xhc3M9Imljb24iPjxwYXRoIGZpbGw9IiMyOTkzOWQiIGQ9Ik01MTEuODUwMDQ0IDAuMjk5OTEyQzIyOS4zMzI4MTMgMC4yOTk5MTIgMC4yOTk5MTIgMTA3LjU2ODQ4NiAwIDIzOS45Mjk3MDh2NTQ0LjE0MDU4NGMwIDEzMi40NjExOTMgMjI5LjEzMjg3MSAyMzkuOTI5NzA4IDUxMS44NTAwNDQgMjM5LjkyOTcwOHM1MTEuODUwMDQ0LTEwNy40Njg1MTUgNTExLjg1MDA0NC0yMzkuOTI5NzA4VjIzOS45Mjk3MDhDMTAyMy40MDAxNzYgMTA3LjU2ODQ4NiA3OTQuMzY3Mjc1IDAuMjk5OTEyIDUxMS44NTAwNDQgMC4yOTk5MTJ6TTE2Ny45NTA3OTYgODk1LjczNzU3N2MtMjIuMDkzNTI3IDAtMzkuOTg4Mjg1LTE3Ljg5NDc1Ny0zOS45ODgyODUtMzkuOTg4Mjg1czE3Ljg5NDc1Ny0zOS45ODgyODUgMzkuOTg4Mjg1LTM5Ljk4ODI4NCAzOS45ODgyODUgMTcuODk0NzU3IDM5Ljk4ODI4NCAzOS45ODgyODQtMTcuODk0NzU3IDM5Ljk4ODI4NS0zOS45ODgyODQgMzkuOTg4Mjg1eiBtNzkxLjc2ODAzNi0xODguNjQ0NzMzYy0xNy44OTQ3NTcgMTEuNDk2NjMyLTM3LjQ4OTAxNyAyMi4xOTM0OTgtNTguNzgyNzc4IDMyLjE5MDU2OS0xMDQuOTY5MjQ3IDQ5LjE4NTU5LTI0My4yMjg3NDIgNzYuMjc3NjUzLTM4OS4wODYwMSA3Ni4yNzc2NTNzLTI4NC4xMTY3NjMtMjcuMDkyMDYzLTM4OS4wODYwMS03Ni4yNzc2NTNjLTIxLjI5Mzc2Mi05Ljk5NzA3MS00MC44ODgwMjEtMjAuNjkzOTM3LTU4Ljc4Mjc3OS0zMi4xOTA1Njl2LTc5LjE3NjgwNGM4Ny4yNzQ0MzEgNzMuNzc4Mzg1IDI1NS4xMjUyNTYgMTIzLjY2Mzc3IDQ0Ny44Njg3ODkgMTIzLjY2Mzc3MXMzNjAuNTk0MzU3LTQ5Ljg4NTM4NSA0NDcuODY4Nzg4LTEyMy42NjM3NzF2NzkuMTc2ODA0ek0xMjcuOTYyNTExIDU4My44Mjg5NTZjMC0yMi4wOTM1MjcgMTcuODk0NzU3LTM5Ljk4ODI4NSAzOS45ODgyODUtMzkuOTg4Mjg0czM5Ljk4ODI4NSAxNy44OTQ3NTcgMzkuOTg4Mjg0IDM5Ljk4ODI4NC0xNy44OTQ3NTcgMzkuOTg4Mjg1LTM5Ljk4ODI4NCAzOS45ODgyODUtMzkuOTg4Mjg1LTE3Ljg5NDc1Ny0zOS45ODgyODUtMzkuOTg4Mjg1eiBtODMxLjc1NjMyMS0xNDguMTU2NTk0Yy0xNy44OTQ3NTcgMTEuNDk2NjMyLTM3LjQ4OTAxNyAyMi4xOTM0OTgtNTguNzgyNzc4IDMyLjE5MDU2OS0xMDQuOTY5MjQ3IDQ5LjE4NTU5LTI0My4yMjg3NDIgNzYuMjc3NjUzLTM4OS4wODYwMSA3Ni4yNzc2NTNTMjI3LjczMzI4MSA1MTcuMDQ4NTIxIDEyMi43NjQwMzQgNDY3Ljg2MjkzMWMtMjEuMjkzNzYyLTkuOTk3MDcxLTQwLjg4ODAyMS0yMC42OTM5MzctNTguNzgyNzc5LTMyLjE5MDU2OXYtNzkuMTc2ODA0Yzg3LjI3NDQzMSA3My43NzgzODUgMjU1LjEyNTI1NiAxMjMuNjYzNzcgNDQ3Ljg2ODc4OSAxMjMuNjYzNzdzMzYwLjU5NDM1Ny00OS44ODUzODUgNDQ3Ljg2ODc4OC0xMjMuNjYzNzd2NzkuMTc2ODA0eiIvPjwvc3ZnPg==;" parent="1" vertex="1">
          <mxGeometry x="2363" y="498" width="112" height="112" as="geometry" />
        </mxCell>
        <mxCell id="iJiPLEONd4pb6N0wiYaS-17" value="&lt;font color=&quot;#4a909b&quot;&gt;&lt;span style=&quot;font-size: 23px;&quot;&gt;推荐数据&lt;/span&gt;&lt;/font&gt;" style="text;html=1;strokeColor=none;fillColor=none;align=center;verticalAlign=middle;whiteSpace=wrap;rounded=0;" parent="1" vertex="1">
          <mxGeometry x="2346" y="620" width="146" height="30" as="geometry" />
        </mxCell>
        <mxCell id="iJiPLEONd4pb6N0wiYaS-32" style="edgeStyle=orthogonalEdgeStyle;rounded=0;orthogonalLoop=1;jettySize=auto;html=1;exitX=0.5;exitY=1;exitDx=0;exitDy=0;entryX=0.5;entryY=0;entryDx=0;entryDy=0;strokeWidth=3;strokeColor=#29939D;" parent="1" source="iJiPLEONd4pb6N0wiYaS-18" target="iJiPLEONd4pb6N0wiYaS-16" edge="1">
          <mxGeometry relative="1" as="geometry" />
        </mxCell>
        <mxCell id="iJiPLEONd4pb6N0wiYaS-18" value="" style="shape=image;verticalLabelPosition=bottom;labelBackgroundColor=default;verticalAlign=top;aspect=fixed;imageAspect=0;image=data:image/svg+xml,PHN2ZyB4bWxuczp4bGluaz0iaHR0cDovL3d3dy53My5vcmcvMTk5OS94bGluayIgeG1sbnM9Imh0dHA6Ly93d3cudzMub3JnLzIwMDAvc3ZnIiBoZWlnaHQ9IjQ4IiB3aWR0aD0iNDgiIHZlcnNpb249IjEuMSIgdmlld0JveD0iMCAwIDEwMjQgMTAyNCIgY2xhc3M9Imljb24iPjxwYXRoIGZpbGw9IiMyOTkzOWQiIGQ9Ik0xNzkuMiA3MDUuMjhWMzQxLjk1MmwtODMuMi00Ni40djQ1Ni4yNTZsNDA0LjA5NiAyMjQuMjU2Vjg4My4yTDE3OS4yIDcwNS4yOHogbTMyMC44OTYgODUuMTJWNTIzLjU4NEwyNjIuNCAzODguMjg4djI3MC42NTZsMjM3LjY5NiAxMzEuNDU2ek01MTIgMTQwLjhsMzIwLjg5NiAxODEuNzYgODMuMi00Ni40TDUxMiA0OCAxMDcuOTA0IDI3Ni4xNmw4My4yIDQ2LjRMNTEyIDE0MC44eiBtMjM3LjY5NiAyMjguMTZMNTEyIDIzMy42IDI3NC4zMDQgMzY4Ljk2IDUxMiA1MDQuMjU2bDIzNy42OTYtMTM1LjI5NnpNNTIzLjkwNCA3OTQuMjRsMjM3LjY5Ni0xMzUuMjk2di05Mi44bC0xNjIuNDMyIDkyLjh2LTkyLjhMODQ0LjggNDI2Ljg4djI3OC40TDUyMy45MDQgODgzLjJ2OTIuOGw0MDQuMDk2LTIyNC4yNTZ2LTQ1Ni4zMkw1MjMuOTA0IDUyMy42NDh2MjcwLjcyeiIvPjwvc3ZnPg==;" parent="1" vertex="1">
          <mxGeometry x="2348.7799999999997" y="294" width="140.43" height="140.43" as="geometry" />
        </mxCell>
        <mxCell id="iJiPLEONd4pb6N0wiYaS-19" value="&lt;font color=&quot;#4a909b&quot;&gt;&lt;span style=&quot;font-size: 23px;&quot;&gt;商品管理服务&lt;/span&gt;&lt;/font&gt;" style="text;html=1;strokeColor=none;fillColor=none;align=center;verticalAlign=middle;whiteSpace=wrap;rounded=0;" parent="1" vertex="1">
          <mxGeometry x="1396" y="411" width="146" height="30" as="geometry" />
        </mxCell>
        <mxCell id="iJiPLEONd4pb6N0wiYaS-20" value="" style="shape=image;verticalLabelPosition=bottom;labelBackgroundColor=default;verticalAlign=top;aspect=fixed;imageAspect=0;image=data:image/svg+xml,PHN2ZyB4bWxuczp4bGluaz0iaHR0cDovL3d3dy53My5vcmcvMTk5OS94bGluayIgeG1sbnM9Imh0dHA6Ly93d3cudzMub3JnLzIwMDAvc3ZnIiBoZWlnaHQ9IjQ4IiB3aWR0aD0iNDgiIHZlcnNpb249IjEuMSIgdmlld0JveD0iMCAwIDEwMjQgMTAyNCIgY2xhc3M9Imljb24iPjxwYXRoIGZpbGw9IiMyOTkzOWQiIGQ9Ik01MTEuODUwMDQ0IDAuMjk5OTEyQzIyOS4zMzI4MTMgMC4yOTk5MTIgMC4yOTk5MTIgMTA3LjU2ODQ4NiAwIDIzOS45Mjk3MDh2NTQ0LjE0MDU4NGMwIDEzMi40NjExOTMgMjI5LjEzMjg3MSAyMzkuOTI5NzA4IDUxMS44NTAwNDQgMjM5LjkyOTcwOHM1MTEuODUwMDQ0LTEwNy40Njg1MTUgNTExLjg1MDA0NC0yMzkuOTI5NzA4VjIzOS45Mjk3MDhDMTAyMy40MDAxNzYgMTA3LjU2ODQ4NiA3OTQuMzY3Mjc1IDAuMjk5OTEyIDUxMS44NTAwNDQgMC4yOTk5MTJ6TTE2Ny45NTA3OTYgODk1LjczNzU3N2MtMjIuMDkzNTI3IDAtMzkuOTg4Mjg1LTE3Ljg5NDc1Ny0zOS45ODgyODUtMzkuOTg4Mjg1czE3Ljg5NDc1Ny0zOS45ODgyODUgMzkuOTg4Mjg1LTM5Ljk4ODI4NCAzOS45ODgyODUgMTcuODk0NzU3IDM5Ljk4ODI4NCAzOS45ODgyODQtMTcuODk0NzU3IDM5Ljk4ODI4NS0zOS45ODgyODQgMzkuOTg4Mjg1eiBtNzkxLjc2ODAzNi0xODguNjQ0NzMzYy0xNy44OTQ3NTcgMTEuNDk2NjMyLTM3LjQ4OTAxNyAyMi4xOTM0OTgtNTguNzgyNzc4IDMyLjE5MDU2OS0xMDQuOTY5MjQ3IDQ5LjE4NTU5LTI0My4yMjg3NDIgNzYuMjc3NjUzLTM4OS4wODYwMSA3Ni4yNzc2NTNzLTI4NC4xMTY3NjMtMjcuMDkyMDYzLTM4OS4wODYwMS03Ni4yNzc2NTNjLTIxLjI5Mzc2Mi05Ljk5NzA3MS00MC44ODgwMjEtMjAuNjkzOTM3LTU4Ljc4Mjc3OS0zMi4xOTA1Njl2LTc5LjE3NjgwNGM4Ny4yNzQ0MzEgNzMuNzc4Mzg1IDI1NS4xMjUyNTYgMTIzLjY2Mzc3IDQ0Ny44Njg3ODkgMTIzLjY2Mzc3MXMzNjAuNTk0MzU3LTQ5Ljg4NTM4NSA0NDcuODY4Nzg4LTEyMy42NjM3NzF2NzkuMTc2ODA0ek0xMjcuOTYyNTExIDU4My44Mjg5NTZjMC0yMi4wOTM1MjcgMTcuODk0NzU3LTM5Ljk4ODI4NSAzOS45ODgyODUtMzkuOTg4Mjg0czM5Ljk4ODI4NSAxNy44OTQ3NTcgMzkuOTg4Mjg0IDM5Ljk4ODI4NC0xNy44OTQ3NTcgMzkuOTg4Mjg1LTM5Ljk4ODI4NCAzOS45ODgyODUtMzkuOTg4Mjg1LTE3Ljg5NDc1Ny0zOS45ODgyODUtMzkuOTg4Mjg1eiBtODMxLjc1NjMyMS0xNDguMTU2NTk0Yy0xNy44OTQ3NTcgMTEuNDk2NjMyLTM3LjQ4OTAxNyAyMi4xOTM0OTgtNTguNzgyNzc4IDMyLjE5MDU2OS0xMDQuOTY5MjQ3IDQ5LjE4NTU5LTI0My4yMjg3NDIgNzYuMjc3NjUzLTM4OS4wODYwMSA3Ni4yNzc2NTNTMjI3LjczMzI4MSA1MTcuMDQ4NTIxIDEyMi43NjQwMzQgNDY3Ljg2MjkzMWMtMjEuMjkzNzYyLTkuOTk3MDcxLTQwLjg4ODAyMS0yMC42OTM5MzctNTguNzgyNzc5LTMyLjE5MDU2OXYtNzkuMTc2ODA0Yzg3LjI3NDQzMSA3My43NzgzODUgMjU1LjEyNTI1NiAxMjMuNjYzNzcgNDQ3Ljg2ODc4OSAxMjMuNjYzNzdzMzYwLjU5NDM1Ny00OS44ODUzODUgNDQ3Ljg2ODc4OC0xMjMuNjYzNzd2NzkuMTc2ODA0eiIvPjwvc3ZnPg==;" parent="1" vertex="1">
          <mxGeometry x="1503" y="498" width="112" height="112" as="geometry" />
        </mxCell>
        <mxCell id="iJiPLEONd4pb6N0wiYaS-21" value="&lt;font color=&quot;#4a909b&quot;&gt;&lt;span style=&quot;font-size: 23px;&quot;&gt;商品数据&lt;/span&gt;&lt;/font&gt;" style="text;html=1;strokeColor=none;fillColor=none;align=center;verticalAlign=middle;whiteSpace=wrap;rounded=0;" parent="1" vertex="1">
          <mxGeometry x="1486" y="620" width="146" height="30" as="geometry" />
        </mxCell>
        <mxCell id="iJiPLEONd4pb6N0wiYaS-28" style="edgeStyle=orthogonalEdgeStyle;rounded=0;orthogonalLoop=1;jettySize=auto;html=1;exitX=0.5;exitY=1;exitDx=0;exitDy=0;strokeWidth=3;strokeColor=#29939D;" parent="1" source="iJiPLEONd4pb6N0wiYaS-22" target="iJiPLEONd4pb6N0wiYaS-20" edge="1">
          <mxGeometry relative="1" as="geometry" />
        </mxCell>
        <mxCell id="iJiPLEONd4pb6N0wiYaS-22" value="" style="shape=image;verticalLabelPosition=bottom;labelBackgroundColor=default;verticalAlign=top;aspect=fixed;imageAspect=0;image=data:image/svg+xml,PHN2ZyB4bWxuczp4bGluaz0iaHR0cDovL3d3dy53My5vcmcvMTk5OS94bGluayIgeG1sbnM9Imh0dHA6Ly93d3cudzMub3JnLzIwMDAvc3ZnIiBoZWlnaHQ9IjQ4IiB3aWR0aD0iNDgiIHZlcnNpb249IjEuMSIgdmlld0JveD0iMCAwIDEwMjQgMTAyNCIgY2xhc3M9Imljb24iPjxwYXRoIGZpbGw9IiMyOTkzOWQiIGQ9Ik0xNzkuMiA3MDUuMjhWMzQxLjk1MmwtODMuMi00Ni40djQ1Ni4yNTZsNDA0LjA5NiAyMjQuMjU2Vjg4My4yTDE3OS4yIDcwNS4yOHogbTMyMC44OTYgODUuMTJWNTIzLjU4NEwyNjIuNCAzODguMjg4djI3MC42NTZsMjM3LjY5NiAxMzEuNDU2ek01MTIgMTQwLjhsMzIwLjg5NiAxODEuNzYgODMuMi00Ni40TDUxMiA0OCAxMDcuOTA0IDI3Ni4xNmw4My4yIDQ2LjRMNTEyIDE0MC44eiBtMjM3LjY5NiAyMjguMTZMNTEyIDIzMy42IDI3NC4zMDQgMzY4Ljk2IDUxMiA1MDQuMjU2bDIzNy42OTYtMTM1LjI5NnpNNTIzLjkwNCA3OTQuMjRsMjM3LjY5Ni0xMzUuMjk2di05Mi44bC0xNjIuNDMyIDkyLjh2LTkyLjhMODQ0LjggNDI2Ljg4djI3OC40TDUyMy45MDQgODgzLjJ2OTIuOGw0MDQuMDk2LTIyNC4yNTZ2LTQ1Ni4zMkw1MjMuOTA0IDUyMy42NDh2MjcwLjcyeiIvPjwvc3ZnPg==;" parent="1" vertex="1">
          <mxGeometry x="1488.78" y="294" width="140.43" height="140.43" as="geometry" />
        </mxCell>
        <mxCell id="iJiPLEONd4pb6N0wiYaS-25" style="edgeStyle=orthogonalEdgeStyle;rounded=1;orthogonalLoop=1;jettySize=auto;html=1;exitX=0.5;exitY=1;exitDx=0;exitDy=0;entryX=0.5;entryY=0;entryDx=0;entryDy=0;curved=0;strokeWidth=3;strokeColor=#29939D;dashed=1;" parent="1" source="iJiPLEONd4pb6N0wiYaS-23" target="iJiPLEONd4pb6N0wiYaS-22" edge="1">
          <mxGeometry relative="1" as="geometry" />
        </mxCell>
        <mxCell id="iJiPLEONd4pb6N0wiYaS-26" style="edgeStyle=orthogonalEdgeStyle;rounded=1;orthogonalLoop=1;jettySize=auto;html=1;exitX=0.5;exitY=1;exitDx=0;exitDy=0;curved=0;strokeWidth=3;strokeColor=#29939D;dashed=1;" parent="1" source="iJiPLEONd4pb6N0wiYaS-23" target="iJiPLEONd4pb6N0wiYaS-6" edge="1">
          <mxGeometry relative="1" as="geometry" />
        </mxCell>
        <mxCell id="iJiPLEONd4pb6N0wiYaS-27" style="edgeStyle=orthogonalEdgeStyle;rounded=1;orthogonalLoop=1;jettySize=auto;html=1;exitX=0.5;exitY=1;exitDx=0;exitDy=0;curved=0;strokeWidth=3;strokeColor=#29939D;dashed=1;" parent="1" source="iJiPLEONd4pb6N0wiYaS-23" target="iJiPLEONd4pb6N0wiYaS-14" edge="1">
          <mxGeometry relative="1" as="geometry" />
        </mxCell>
        <mxCell id="iJiPLEONd4pb6N0wiYaS-38" style="edgeStyle=orthogonalEdgeStyle;rounded=0;orthogonalLoop=1;jettySize=auto;html=1;exitX=0;exitY=0.5;exitDx=0;exitDy=0;strokeWidth=3;dashed=1;strokeColor=#29939D;" parent="1" source="iJiPLEONd4pb6N0wiYaS-23" target="iJiPLEONd4pb6N0wiYaS-37" edge="1">
          <mxGeometry relative="1" as="geometry" />
        </mxCell>
        <mxCell id="iJiPLEONd4pb6N0wiYaS-23" value="" style="shape=image;verticalLabelPosition=bottom;labelBackgroundColor=default;verticalAlign=top;aspect=fixed;imageAspect=0;image=data:image/svg+xml,PHN2ZyB4bWxuczp4bGluaz0iaHR0cDovL3d3dy53My5vcmcvMTk5OS94bGluayIgeG1sbnM9Imh0dHA6Ly93d3cudzMub3JnLzIwMDAvc3ZnIiBoZWlnaHQ9IjQ4IiB3aWR0aD0iNDgiIHZlcnNpb249IjEuMSIgdmlld0JveD0iMCAwIDEwMjQgMTAyNCIgY2xhc3M9Imljb24iPjxwYXRoIGZpbGw9IiMyOTkzOWQiIGQ9Ik0xNzkuMiA3MDUuMjhWMzQxLjk1MmwtODMuMi00Ni40djQ1Ni4yNTZsNDA0LjA5NiAyMjQuMjU2Vjg4My4yTDE3OS4yIDcwNS4yOHogbTMyMC44OTYgODUuMTJWNTIzLjU4NEwyNjIuNCAzODguMjg4djI3MC42NTZsMjM3LjY5NiAxMzEuNDU2ek01MTIgMTQwLjhsMzIwLjg5NiAxODEuNzYgODMuMi00Ni40TDUxMiA0OCAxMDcuOTA0IDI3Ni4xNmw4My4yIDQ2LjRMNTEyIDE0MC44eiBtMjM3LjY5NiAyMjguMTZMNTEyIDIzMy42IDI3NC4zMDQgMzY4Ljk2IDUxMiA1MDQuMjU2bDIzNy42OTYtMTM1LjI5NnpNNTIzLjkwNCA3OTQuMjRsMjM3LjY5Ni0xMzUuMjk2di05Mi44bC0xNjIuNDMyIDkyLjh2LTkyLjhMODQ0LjggNDI2Ljg4djI3OC40TDUyMy45MDQgODgzLjJ2OTIuOGw0MDQuMDk2LTIyNC4yNTZ2LTQ1Ni4zMkw1MjMuOTA0IDUyMy42NDh2MjcwLjcyeiIvPjwvc3ZnPg==;" parent="1" vertex="1">
          <mxGeometry x="1717.78" y="54" width="140.43" height="140.43" as="geometry" />
        </mxCell>
        <mxCell id="iJiPLEONd4pb6N0wiYaS-24" value="&lt;font color=&quot;#4a909b&quot;&gt;&lt;span style=&quot;font-size: 23px;&quot;&gt;秒杀服务&lt;/span&gt;&lt;/font&gt;" style="text;html=1;strokeColor=none;fillColor=none;align=center;verticalAlign=middle;whiteSpace=wrap;rounded=0;" parent="1" vertex="1">
          <mxGeometry x="1629.21" y="167" width="146" height="30" as="geometry" />
        </mxCell>
        <mxCell id="iJiPLEONd4pb6N0wiYaS-35" style="edgeStyle=orthogonalEdgeStyle;rounded=1;orthogonalLoop=1;jettySize=auto;html=1;exitX=0.5;exitY=1;exitDx=0;exitDy=0;strokeWidth=3;strokeColor=#29939D;curved=0;dashed=1;" parent="1" source="iJiPLEONd4pb6N0wiYaS-33" target="iJiPLEONd4pb6N0wiYaS-18" edge="1">
          <mxGeometry relative="1" as="geometry">
            <Array as="points">
              <mxPoint x="2216" y="207" />
              <mxPoint x="2419" y="207" />
            </Array>
          </mxGeometry>
        </mxCell>
        <mxCell id="iJiPLEONd4pb6N0wiYaS-36" style="edgeStyle=orthogonalEdgeStyle;rounded=1;orthogonalLoop=1;jettySize=auto;html=1;exitX=0.5;exitY=1;exitDx=0;exitDy=0;strokeWidth=3;strokeColor=#29939D;curved=0;dashed=1;" parent="1" source="iJiPLEONd4pb6N0wiYaS-33" target="iJiPLEONd4pb6N0wiYaS-6" edge="1">
          <mxGeometry relative="1" as="geometry">
            <Array as="points">
              <mxPoint x="2216" y="207" />
              <mxPoint x="1788" y="207" />
            </Array>
          </mxGeometry>
        </mxCell>
        <mxCell id="iJiPLEONd4pb6N0wiYaS-33" value="" style="shape=image;verticalLabelPosition=bottom;labelBackgroundColor=default;verticalAlign=top;aspect=fixed;imageAspect=0;image=data:image/svg+xml,PHN2ZyB4bWxuczp4bGluaz0iaHR0cDovL3d3dy53My5vcmcvMTk5OS94bGluayIgeG1sbnM9Imh0dHA6Ly93d3cudzMub3JnLzIwMDAvc3ZnIiBoZWlnaHQ9IjQ4IiB3aWR0aD0iNDgiIHZlcnNpb249IjEuMSIgdmlld0JveD0iMCAwIDEwMjQgMTAyNCIgY2xhc3M9Imljb24iPjxwYXRoIGZpbGw9IiMyOTkzOWQiIGQ9Ik0xNzkuMiA3MDUuMjhWMzQxLjk1MmwtODMuMi00Ni40djQ1Ni4yNTZsNDA0LjA5NiAyMjQuMjU2Vjg4My4yTDE3OS4yIDcwNS4yOHogbTMyMC44OTYgODUuMTJWNTIzLjU4NEwyNjIuNCAzODguMjg4djI3MC42NTZsMjM3LjY5NiAxMzEuNDU2ek01MTIgMTQwLjhsMzIwLjg5NiAxODEuNzYgODMuMi00Ni40TDUxMiA0OCAxMDcuOTA0IDI3Ni4xNmw4My4yIDQ2LjRMNTEyIDE0MC44eiBtMjM3LjY5NiAyMjguMTZMNTEyIDIzMy42IDI3NC4zMDQgMzY4Ljk2IDUxMiA1MDQuMjU2bDIzNy42OTYtMTM1LjI5NnpNNTIzLjkwNCA3OTQuMjRsMjM3LjY5Ni0xMzUuMjk2di05Mi44bC0xNjIuNDMyIDkyLjh2LTkyLjhMODQ0LjggNDI2Ljg4djI3OC40TDUyMy45MDQgODgzLjJ2OTIuOGw0MDQuMDk2LTIyNC4yNTZ2LTQ1Ni4zMkw1MjMuOTA0IDUyMy42NDh2MjcwLjcyeiIvPjwvc3ZnPg==;" parent="1" vertex="1">
          <mxGeometry x="2146" y="60" width="140.43" height="140.43" as="geometry" />
        </mxCell>
        <mxCell id="iJiPLEONd4pb6N0wiYaS-34" value="&lt;font color=&quot;#4a909b&quot;&gt;&lt;span style=&quot;font-size: 23px;&quot;&gt;首页服务&lt;/span&gt;&lt;/font&gt;" style="text;html=1;strokeColor=none;fillColor=none;align=center;verticalAlign=middle;whiteSpace=wrap;rounded=0;" parent="1" vertex="1">
          <mxGeometry x="2053" y="171" width="146" height="30" as="geometry" />
        </mxCell>
        <mxCell id="iJiPLEONd4pb6N0wiYaS-37" value="" style="shape=image;verticalLabelPosition=bottom;labelBackgroundColor=default;verticalAlign=top;aspect=fixed;imageAspect=0;image=data:image/svg+xml,PHN2ZyB4bWxuczp4bGluaz0iaHR0cDovL3d3dy53My5vcmcvMTk5OS94bGluayIgeG1sbnM9Imh0dHA6Ly93d3cudzMub3JnLzIwMDAvc3ZnIiBoZWlnaHQ9IjQ4IiB3aWR0aD0iNDgiIHZlcnNpb249IjEuMSIgdmlld0JveD0iMCAwIDEwMjQgMTAyNCIgY2xhc3M9Imljb24iPjxwYXRoIGZpbGw9IiMyOTkzOWQiIGQ9Ik0xMDIzLjc4NjY2NyA2MTEuODRjLTAuNDI2NjY3IDkuNzcwNjY3LTEzLjM1NDY2NyAyMC42OTMzMzMtMzkuODkzMzM0IDM0LjU2LTU0LjYxMzMzMyAyOC40NTg2NjctMzM3Ljc0OTMzMyAxNDQuODk2LTM5Ny45OTQ2NjYgMTc2LjI5ODY2Ny02MC4yODggMzEuNDAyNjY3LTkzLjczODY2NyAzMS4xMDQtMTQxLjM1NDY2NyA4LjMyLTQ3LjYxNi0yMi43NDEzMzMtMzQ4Ljg0MjY2Ny0xNDQuNDY5MzMzLTQwMy4xMTQ2NjctMTcwLjM2OC0yNy4wOTMzMzMtMTIuOTcwNjY3LTQwLjkxNzMzMy0yMy44OTMzMzMtNDEuMzg2NjY2LTM0LjIxODY2N3YxMDMuNTA5MzMzYzAgMTAuMzI1MzMzIDE0LjI1MDY2NyAyMS4yOTA2NjcgNDEuMzg2NjY2IDM0LjI2MTMzNCA1NC4yNzIgMjUuOTQxMzMzIDM1NS41NDEzMzMgMTQ3LjYyNjY2NyA0MDMuMTE0NjY3IDE3MC4zNjggNDcuNjE2IDIyLjc4NCA4MS4wNjY2NjcgMjMuMDgyNjY3IDE0MS4zNTQ2NjctOC4zNjI2NjcgNjAuMjQ1MzMzLTMxLjQwMjY2NyAzNDMuMzM4NjY3LTE0Ny43OTczMzMgMzk3Ljk5NDY2Ni0xNzYuMjk4NjY3IDI3Ljc3Ni0xNC40NjQgNDAuMTA2NjY3LTI1LjcyOCA0MC4xMDY2NjctMzUuOTI1MzMzdi0xMDIuMDU4NjY3bC0wLjIxMzMzMy0wLjA4NTMzM3oiLz48cGF0aCBmaWxsPSIjMjk5MzlkIiBkPSJNMTAyMy43NDQgNDQzLjA5MzMzM2MtMC40MjY2NjcgOS43NzA2NjctMTMuMzU0NjY3IDIwLjY1MDY2Ny0zOS44NTA2NjcgMzQuNTE3MzM0LTU0LjYxMzMzMyAyOC40NTg2NjctMzM3Ljc0OTMzMyAxNDQuODk2LTM5Ny45OTQ2NjYgMTc2LjI5ODY2Ni02MC4yODggMzEuNDAyNjY3LTkzLjczODY2NyAzMS4xMDQtMTQxLjM1NDY2NyA4LjM2MjY2Ny00Ny42MTYtMjIuNzQxMzMzLTM0OC44NDI2NjctMTQ0LjQ2OTMzMy00MDMuMTE0NjY3LTE3MC40MTA2NjctMjcuMDkzMzMzLTEyLjkyOC00MC45MTczMzMtMjMuODkzMzMzLTQxLjM4NjY2Ni0zNC4xNzZ2MTAzLjUwOTMzNGMwIDEwLjMyNTMzMyAxNC4yNTA2NjcgMjEuMjQ4IDQxLjM4NjY2NiAzNC4yMTg2NjYgNTQuMjcyIDI1Ljk0MTMzMyAzNTUuNDk4NjY3IDE0Ny42MjY2NjcgNDAzLjExNDY2NyAxNzAuMzY4IDQ3LjYxNiAyMi43ODQgODEuMDY2NjY3IDIzLjA4MjY2NyAxNDEuMzU0NjY3LTguMzIgNjAuMjQ1MzMzLTMxLjQwMjY2NyAzNDMuMzM4NjY3LTE0Ny44NCAzOTcuOTk0NjY2LTE3Ni4yOTg2NjYgMjcuNzc2LTE0LjUwNjY2NyA0MC4xMDY2NjctMjUuNzcwNjY3IDQwLjEwNjY2Ny0zNS45Njh2LTEwMi4wNTg2NjdsLTAuMjU2LTAuMDQyNjY3eiIvPjxwYXRoIGZpbGw9IiMyOTkzOWQiIGQ9Ik0xMDIzLjc0NCAyNjguMDc0NjY3YzAuNTEyLTEwLjQxMDY2Ny0xMy4wOTg2NjctMTkuNTQxMzMzLTQwLjQ5MDY2Ny0yOS42MTA2NjctNTMuMjQ4LTE5LjQ5ODY2Ny0zMzQuNjM0NjY3LTEzMS40OTg2NjctMzg4LjUyMjY2Ni0xNTEuMjUzMzMzLTUzLjg4OC0xOS43MTItNzUuODE4NjY3LTE4LjkwMTMzMy0xMzkuMDkzMzM0IDMuODRDMzkyLjIzNDY2NyAxMTMuNzA2NjY3IDkyLjYyOTMzMyAyMzEuMjUzMzMzIDM5LjMzODY2NyAyNTIuMDc0NjY3Yy0yNi42NjY2NjcgMTAuNDk2LTM5LjY4IDIwLjE4MTMzMy0zOS4yNTMzMzQgMzAuNTA2NjY2VjM4Ni4xMzMzMzNjMCAxMC4zMjUzMzMgMTQuMjUwNjY3IDIxLjI0OCA0MS4zODY2NjcgMzQuMjE4NjY3IDU0LjI3MiAyNS45NDEzMzMgMzU1LjQ5ODY2NyAxNDcuNjY5MzMzIDQwMy4xMTQ2NjcgMTcwLjQxMDY2NyA0Ny42MTYgMjIuNzQxMzMzIDgxLjA2NjY2NyAyMy4wNCAxNDEuMzU0NjY2LTguMzYyNjY3IDYwLjI0NTMzMy0zMS40MDI2NjcgMzQzLjMzODY2Ny0xNDcuODQgMzk3Ljk5NDY2Ny0xNzYuMjk4NjY3IDI3Ljc3Ni0xNC41MDY2NjcgNDAuMTA2NjY3LTI1Ljc3MDY2NyA0MC4xMDY2NjctMzUuOTY4VjI2OC4wNzQ2NjdoLTAuMzQxMzM0ek0zNjYuNzIgMzY2LjA4bDIzNy4yNjkzMzMtMzYuNDM3MzMzLTcxLjY4IDEwNS4wODgtMTY1LjU0NjY2Ni02OC42NTA2Njd6IG01MjQuOC05NC42MzQ2NjdsLTE0MC4zMzA2NjcgNTUuNDY2NjY3LTE1LjIzMiA1Ljk3MzMzMy0xNDAuMjQ1MzMzLTU1LjQ2NjY2NiAxNTUuMzkyLTYxLjQ0IDE0MC4zNzMzMzMgNTUuNDY2NjY2eiBtLTQxMS45ODkzMzMtMTAxLjY3NDY2NmwtMjIuOTU0NjY3LTQyLjMyNTMzNCA3MS41OTQ2NjcgMjcuOTg5MzM0IDY3LjQ5ODY2Ni0yMi4xMDEzMzQtMTguMjYxMzMzIDQzLjczMzMzNCA2OC43Nzg2NjcgMjUuNzcwNjY2LTg4LjcwNCA5LjIxNi0xOS44ODI2NjcgNDcuNzg2NjY3LTMyLjA4NTMzMy01My4yOTA2NjctMTAyLjQtOS4yMTYgNzYuNDE2LTI3LjU2MjY2NnogbS0xNzYuNzY4IDU5LjczMzMzM2M3MC4wNTg2NjcgMCAxMjYuODA1MzMzIDIxLjk3MzMzMyAxMjYuODA1MzMzIDQ5LjEwOTMzM3MtNTYuNzQ2NjY3IDQ5LjE1Mi0xMjYuODA1MzMzIDQ5LjE1Mi0xMjYuODQ4LTIyLjA1ODY2Ny0xMjYuODQ4LTQ5LjE1MmMwLTI3LjEzNiA1Ni43ODkzMzMtNDkuMTUyIDEyNi44NDgtNDkuMTUyeiIvPjwvc3ZnPg==;" parent="1" vertex="1">
          <mxGeometry x="1528" y="78.08" width="92.28" height="92.28" as="geometry" />
        </mxCell>
        <mxCell id="iJiPLEONd4pb6N0wiYaS-40" value="&lt;font style=&quot;font-size: 26px;&quot; color=&quot;#29939d&quot;&gt;&lt;b&gt;http/rpc/mq&lt;/b&gt;&lt;/font&gt;" style="text;html=1;align=center;verticalAlign=middle;whiteSpace=wrap;rounded=0;" parent="1" vertex="1">
          <mxGeometry x="1896" y="211" width="166" height="30" as="geometry" />
        </mxCell>
        <mxCell id="iJiPLEONd4pb6N0wiYaS-42" style="edgeStyle=orthogonalEdgeStyle;rounded=1;orthogonalLoop=1;jettySize=auto;html=1;exitX=0.5;exitY=1;exitDx=0;exitDy=0;entryX=0.5;entryY=0;entryDx=0;entryDy=0;curved=0;strokeWidth=3;strokeColor=#29939D;dashed=1;" parent="1" source="iJiPLEONd4pb6N0wiYaS-41" target="iJiPLEONd4pb6N0wiYaS-23" edge="1">
          <mxGeometry relative="1" as="geometry">
            <Array as="points">
              <mxPoint x="2004" y="-14" />
              <mxPoint x="1788" y="-14" />
            </Array>
          </mxGeometry>
        </mxCell>
        <mxCell id="iJiPLEONd4pb6N0wiYaS-43" style="edgeStyle=orthogonalEdgeStyle;rounded=1;orthogonalLoop=1;jettySize=auto;html=1;exitX=0.5;exitY=1;exitDx=0;exitDy=0;entryX=0.5;entryY=0;entryDx=0;entryDy=0;curved=0;strokeWidth=3;strokeColor=#29939D;dashed=1;" parent="1" source="iJiPLEONd4pb6N0wiYaS-41" target="iJiPLEONd4pb6N0wiYaS-33" edge="1">
          <mxGeometry relative="1" as="geometry">
            <Array as="points">
              <mxPoint x="2004" y="-14" />
              <mxPoint x="2216" y="-14" />
            </Array>
          </mxGeometry>
        </mxCell>
        <mxCell id="iJiPLEONd4pb6N0wiYaS-41" value="" style="shape=image;verticalLabelPosition=bottom;labelBackgroundColor=default;verticalAlign=top;aspect=fixed;imageAspect=0;image=data:image/svg+xml,PHN2ZyB4bWxuczp4bGluaz0iaHR0cDovL3d3dy53My5vcmcvMTk5OS94bGluayIgeG1sbnM9Imh0dHA6Ly93d3cudzMub3JnLzIwMDAvc3ZnIiBoZWlnaHQ9IjQ4IiB3aWR0aD0iNDgiIHZlcnNpb249IjEuMSIgdmlld0JveD0iMCAwIDEwMjQgMTAyNCIgY2xhc3M9Imljb24iPjxwYXRoIGZpbGw9IiMyOTkzOWQiIGQ9Ik04Ny44ODQ4IDQ5NC41MTUyTDQ5NS4xNzgyNCA4Ny4yMjE3NmM5Ljk5NjgtOS45OTY4IDI2LjIwNjcyLTkuOTk2OCAzNi4yMDM1MiAwbDQwNy4yOTYgNDA3LjI5NmM5Ljk5NDI0IDkuOTk0MjQgOS45OTQyNCAyNi4yMDQxNiAwIDM2LjIwMDk2bC00MDcuMjk2IDQwNy4yOTZjLTkuOTk2OCA5Ljk5NDI0LTI2LjIwNjcyIDkuOTk0MjQtMzYuMjAzNTIgMGwtNDA3LjI5Ni00MDcuMjk2Yy05Ljk5NDI0LTkuOTk2OC05Ljk5NDI0LTI2LjIwNjcyIDAtMzYuMjAzNTJ6IG0zNTkuNDg4LTIzLjkzODU2bC0xMjMuODY1NiAxMTkuNjEzNDQtNDEuMDY3NTItNDIuNTQ3Mi0yLjMxNDI0IDEzMi40ODUxMiAxMzIuNDI4OCAyLjMxMTY4LTQyLjgxODU2LTQ0LjM2MjI0TDQ3OC43MiA1MzIuODMzMjh2MjY2LjI0bC01OS4xMzYtMC4wMTAyNCA5My42OTYgOTMuNjk2IDkzLjY1NzYtOTMuNjU3Ni02MS42NTc2LTAuMDEyOFY1MzYuNzA0bDEwNi44NDQxNiAxMDMuMTc4MjQtNDEuMDg4IDQyLjUyOTI4IDEzMi40ODUxMi0yLjMxMTY4LTIuMzExNjgtMTMyLjQyODgtNDIuODM5MDQgNDQuMzQxNzYtMTI1LjMwMTc2LTEyMS4wMDA5NkM2MjkuMDA5OTIgNDQ2Ljg2MDggNjY4LjE2IDM5MS4yMDM4NCA2NjguMTYgMzI2LjRjMC04Ni45NTI5Ni03MC40ODcwNC0xNTcuNDQtMTU3LjQ0LTE1Ny40NFMzNTMuMjggMjM5LjQ0NzA0IDM1My4yOCAzMjYuNGMwIDY0LjQxNzI4IDM4LjY4NjcyIDExOS43OTc3NiA5NC4wOTI4IDE0NC4xNzY2NHogbTUxLjAyODQ4LTMyLjM4NjU2YTExMS43MzM3NiAxMTEuNzMzNzYgMCAwIDEtNDMuOTA0LTE0LjM3NDRjMTIuNzE1NTItMi4xNzg1NiAyNy4zNDA4LTcuOTQzNjggNDIuOTU5MzYtMTYuOTgwNDhhNS41NjAzMiA1LjU2MDMyIDAgMCAwLTUuNTc1NjgtOS42MjA0OGMtMjAuNzIwNjQgMTEuOTkzNi0zOS4xNTI2NCAxNy41MzYtNTIuNDU0NCAxNi4xNjEyOGExMTMuMDkzMTIgMTEzLjA5MzEyIDAgMCAxLTIxLjM1NTUyLTIzLjIxOTJjLTAuNzE2OC0xNS4yODgzMiA2LjkyNzM2LTM2LjcxODA4IDIxLjgzNjgtNTkuNzQyNzJsMi43OTI5NiAzLjgwMTZhMzA0LjUxOTY4IDMwNC41MTk2OCAwIDAgMCAyNS41NDM2OCAyOC45NjEyOGMyMy45Nzk1MiAyMy45ODIwOCA1MC4zOTg3MiA0Mi44MzM5MiA3NC40OTYgNTMuMTc2MzIgOC42MzIzMiAzLjY5NjY0IDE2Ljc0MjQgNi4xOTI2NCAyNC4yMTI0OCA3LjQ1NzI4YTExMS43MzM3NiAxMTEuNzMzNzYgMCAwIDEtNDMuOTE0MjQgMTQuMzc5NTJoLTI0LjYzNzQ0ek00MDguNTI0OCAzNzMuNDAxNmExMTIuMDM4NCAxMTIuMDM4NCAwIDAgMS0xMC4yNjU2LTQ3LjAwMTZjMC0xOC4yMzQ4OCA0LjM0MTc2LTM1LjQ1NiAxMi4wNDIyNC01MC42ODI4OGExMjQuNTE1ODQgMTI0LjUxNTg0IDAgMCAwIDQuNzY5MjggMTMuMDI3ODRjNC4zNzc2IDEwLjIwNjcyIDEwLjM5MzYgMjAuOTE1MiAxNy44NzM5MiAzMS45OTQ4OC0xMi44NzkzNiAxOS4wODIyNC0yMS4xMDk3NiAzNy4xMDQ2NC0yNC40MjI0IDUyLjY2MTc2eiBtOS45MTc0NC0xMTEuMjk4NTZhMTEzLjAzMTY4IDExMy4wMzE2OCAwIDAgMSAzNS45ODU5Mi0zMy4wODAzMmMxMC42OTA1NiAyLjA5OTIgMjMuMTczMTIgNy4wODM1MiAzNi43MTgwOCAxNC44NDhhNS41NjggNS41NjggMCAxIDAgNS41NTc3Ni05LjY1MTJjLTkuNTEwNC01LjQ1MjgtMTguNTcyOC05LjY0MzUyLTI3LjA0MTI4LTEyLjU0NjU2YTExMi4xNjg5NiAxMTIuMTY4OTYgMCAwIDEgNDEuMDU0NzItNy43MzEyIDExMi4wMTUzNiAxMTIuMDE1MzYgMCAwIDEgNDguNDE0NzIgMTAuOTI4NjRjLTUuNDMyMzIgMS4yMTYtMTEuMTgyMDggMy4wMzEwNC0xNy4yMDA2NCA1LjQ0NTEyLTI0LjcwOTEyIDkuOTA3Mi01Mi4wNzA0IDI5LjE1MDcyLTc3LjAyMDE2IDU0LjEwMDQ4YTMwNC4yNzkwNCAzMDQuMjc5MDQgMCAwIDAtMjQuNDQ4IDI3LjUzMjhjLTYuMjkyNDgtOS41NjY3Mi0xMS40MjI3Mi0xOC44MTYtMTUuMTcwNTYtMjcuNTk2OC0zLjQ4NjcyLTguMTEyNjQtNS43NzAyNC0xNS41ODAxNi02Ljg1MDU2LTIyLjI0ODk2eiBtMTU2LjYyNTkyLTI3Ljk0MjRhMTEzLjEwMDggMTEzLjEwMDggMCAwIDEgMjUuMjU5NTIgMjQuMjgxNmMwLjI2MzY4IDguODE0MDgtMi4yNTc5MiAxOS42NDU0NC03LjU1NDU2IDMxLjk4OTc2LTkuNzQ4NDggMjIuNzczNzYtMjcuNzg4OCA0Ny45NjQxNi01MC44MDA2NCA3MC45Nzg1NmEzMDYuMjU1MzYgMzA2LjI1NTM2IDAgMCAxLTE2LjU1MDQgMTUuMzYgNS41NTc3NiA1LjU1Nzc2IDAgMCAwIDcuMjUyNDggOC40MjI0IDMzOC41MjkyOCAzMzguNTI5MjggMCAwIDAgMTcuMTIzODQtMTUuODU5MmMyMy45Nzk1Mi0yMy45ODIwOCA0Mi44OC01MC40MzQ1NiA1My4xNzEyLTc0LjQ4NTc2IDMuMjYxNDQtNy42MDMyIDUuNTcwNTYtMTQuNzk2OCA2LjkzMjQ4LTIxLjQ5NjMyYTExMS45NjE2IDExMS45NjE2IDAgMCAxIDEzLjI3MzYgNTMuMDQ4MzJjMCAxNi42ODM1Mi0zLjYzNTIgMzIuNTE3MTItMTAuMTUyOTYgNDYuNzU1ODQtMi41MTY0OC0xMS41NTU4NC03Ljc5MjY0LTI0LjUyOTkyLTE1Ljc4NzUyLTM4LjQ2MTQ0bC0wLjAxMDI0LTAuMDA1MTJhNS41NjggNS41NjggMCAwIDAtOS42Mzg0IDUuNTU3NzZjMTEuMTUxMzYgMTkuNDA5OTIgMTYuNTkxMzYgMzYuNjcyIDE2LjAwNzY4IDQ5LjU3OTUyYTExMy4wOTA1NiAxMTMuMDkwNTYgMCAwIDEtMjEuNjc4MDggMjMuNjI2MjRjLTkuMzUxNjggMC45NjI1Ni0yMS4yNTgyNC0xLjQ4MjI0LTM0Ljc5ODA4LTcuMjk2LTIyLjgyMjQtOS43NzkyLTQ4LjAzNTg0LTI3LjgxOTUyLTcxLjAxOTUyLTUwLjgwNTc2YTI5NC4yMDAzMiAyOTQuMjAwMzIgMCAwIDEtMjQuNDk5Mi0yNy43OTM5MmwtNC41NDkxMi02LjE2NzA0IDAuNDgxMjgtMC40NTMxMmMwLjE4OTQ0LTAuMTc5MiAwLjM2MzUyLTAuMzc2MzIgMC41MTk2OC0wLjU4MzY4YTI5OC40OTYgMjk4LjQ5NiAwIDAgMSAyNC43NjI4OC0yOC4wNTc2YzIzLjkxMDQtMjMuOTQxMTIgNDkuOTUwNzItNDIuMjc4NCA3My4zMDMwNC01MS42NTU2OCAxMC45MzM3Ni00LjM4Nzg0IDIwLjc3Njk2LTYuNTQ4NDggMjguOTUxMDQtNi40NzY4eiBtLTY0LjMyNTEyIDY3LjMxNTJhMTkuMzIwMzIgMTkuMzIwMzIgMCAwIDAtMTkuMzUxMDQgMTkuMjg5NiAxOS4zMjAzMiAxOS4zMjAzMiAwIDEgMCAzOC42MzgwOCAwLjAzMDcyIDE5LjM0MDggMTkuMzQwOCAwIDAgMC0xOS4yODcwNC0xOS4zMjAzMnoiLz48L3N2Zz4=;" parent="1" vertex="1">
          <mxGeometry x="1949.21" y="-142" width="110" height="110" as="geometry" />
        </mxCell>
        <mxCell id="iJiPLEONd4pb6N0wiYaS-47" style="edgeStyle=orthogonalEdgeStyle;rounded=1;orthogonalLoop=1;jettySize=auto;html=1;exitX=0.5;exitY=1;exitDx=0;exitDy=0;entryX=0;entryY=0.5;entryDx=0;entryDy=0;strokeWidth=3;curved=0;dashed=1;strokeColor=#29939D;" parent="1" source="iJiPLEONd4pb6N0wiYaS-45" target="iJiPLEONd4pb6N0wiYaS-41" edge="1">
          <mxGeometry relative="1" as="geometry" />
        </mxCell>
        <mxCell id="iJiPLEONd4pb6N0wiYaS-45" value="" style="shape=image;verticalLabelPosition=bottom;labelBackgroundColor=default;verticalAlign=top;aspect=fixed;imageAspect=0;image=data:image/svg+xml,PHN2ZyB4bWxuczp4bGluaz0iaHR0cDovL3d3dy53My5vcmcvMTk5OS94bGluayIgeG1sbnM9Imh0dHA6Ly93d3cudzMub3JnLzIwMDAvc3ZnIiBoZWlnaHQ9IjQ4IiB3aWR0aD0iNDgiIHZlcnNpb249IjEuMSIgdmlld0JveD0iMCAwIDEwMjQgMTAyNCIgY2xhc3M9Imljb24iPjxwYXRoIGZpbGw9IiMyOTkzOWQiIGQ9Ik04NTkgNzkuMjdIMTY1YTkwIDkwIDAgMCAwLTkwIDkwdjY5NGE5MCA5MCAwIDAgMCA5MCA5MGg2OTRhOTAgOTAgMCAwIDAgOTAtOTB2LTY5NGE5MCA5MCAwIDAgMC05MC05MHogbS02OTMgNjBoNjk0YTMwIDMwIDAgMCAxIDMwIDMwdjE0NUgxMzZ2LTE0NWEzMCAzMCAwIDAgMSAzMC0zMHogbTY5MyA3NTRIMTY1YTMwIDMwIDAgMCAxLTMwLTMwdi00ODloNzU0djQ4OWEzMCAzMCAwIDAgMS0zMCAzMHoiLz48cGF0aCBmaWxsPSIjMjk5MzlkIiBkPSJNMjIzLjQ3IDIyNy45OG0tNTAgMGE1MCA1MCAwIDEgMCAxMDAgMCA1MCA1MCAwIDEgMC0xMDAgMFoiLz48cGF0aCBmaWxsPSIjMjk5MzlkIiBkPSJNMzUzLjA4IDIyNy45OG0tNTAgMGE1MCA1MCAwIDEgMCAxMDAgMCA1MCA1MCAwIDEgMC0xMDAgMFoiLz48cGF0aCBmaWxsPSIjMjk5MzlkIiBkPSJNNDgyLjY5IDIyNy45OG0tNTAgMGE1MCA1MCAwIDEgMCAxMDAgMCA1MCA1MCAwIDEgMC0xMDAgMFoiLz48L3N2Zz4=;" parent="1" vertex="1">
          <mxGeometry x="1835.9299999999998" y="-218" width="83.71" height="83.71" as="geometry" />
        </mxCell>
        <mxCell id="iJiPLEONd4pb6N0wiYaS-48" style="edgeStyle=orthogonalEdgeStyle;rounded=1;orthogonalLoop=1;jettySize=auto;html=1;exitX=0.5;exitY=1;exitDx=0;exitDy=0;entryX=1;entryY=0.5;entryDx=0;entryDy=0;strokeWidth=3;curved=0;dashed=1;strokeColor=#29939D;" parent="1" source="iJiPLEONd4pb6N0wiYaS-46" target="iJiPLEONd4pb6N0wiYaS-41" edge="1">
          <mxGeometry relative="1" as="geometry" />
        </mxCell>
        <mxCell id="iJiPLEONd4pb6N0wiYaS-46" value="" style="shape=image;verticalLabelPosition=bottom;labelBackgroundColor=default;verticalAlign=top;aspect=fixed;imageAspect=0;image=data:image/svg+xml,PHN2ZyB4bWxuczp4bGluaz0iaHR0cDovL3d3dy53My5vcmcvMTk5OS94bGluayIgeG1sbnM9Imh0dHA6Ly93d3cudzMub3JnLzIwMDAvc3ZnIiBoZWlnaHQ9IjQ4IiB3aWR0aD0iNDgiIHZlcnNpb249IjEuMSIgdmlld0JveD0iMCAwIDEwMjQgMTAyNCIgY2xhc3M9Imljb24iPjxwYXRoIGZpbGw9IiMyOTkzOWQiIGQ9Ik04MjAuNDA5NDQ5IDc5Ny4yMjgzNDZxMCAyNS4xOTY4NS0xMC4wNzg3NCA0Ni44NjYxNDJ0LTI3LjcxNjUzNSAzOC4yOTkyMTMtNDEuMzIyODM1IDI2LjIwNDcyNC01MC44OTc2MzggOS41NzQ4MDNsLTM1Ny43OTUyNzYgMHEtMjcuMjEyNTk4IDAtNTAuODk3NjM4LTkuNTc0ODAzdC00MS4zMjI4MzUtMjYuMjA0NzI0LTI3LjcxNjUzNS0zOC4yOTkyMTMtMTAuMDc4NzQtNDYuODY2MTQybDAtNjc1LjI3NTU5MXEwLTI1LjE5Njg1IDEwLjA3ODc0LTQ3LjM3MDA3OXQyNy43MTY1MzUtMzguODAzMTUgNDEuMzIyODM1LTI2LjIwNDcyNCA1MC44OTc2MzgtOS41NzQ4MDNsMzU3Ljc5NTI3NiAwcTI3LjIxMjU5OCAwIDUwLjg5NzYzOCA5LjU3NDgwM3Q0MS4zMjI4MzUgMjYuMjA0NzI0IDI3LjcxNjUzNSAzOC44MDMxNSAxMC4wNzg3NCA0Ny4zNzAwNzlsMCA2NzUuMjc1NTkxek03MzguNzcxNjU0IDE3MC4zMzA3MDlsLTQ1NS41NTkwNTUgMCAwIDU3Ny41MTE4MTEgNDU1LjU1OTA1NSAwIDAtNTc3LjUxMTgxMXpNNTEwLjk5MjEyNiA3NzYuMDYyOTkycS0yMS4xNjUzNTQgMC0zNi43ODc0MDIgMTUuMTE4MTF0LTE1LjYyMjA0NyAzNy4yOTEzMzlxMCAyMS4xNjUzNTQgMTUuNjIyMDQ3IDM2Ljc4NzQwMnQzNi43ODc0MDIgMTUuNjIyMDQ3cTIyLjE3MzIyOCAwIDM3LjI5MTMzOS0xNS42MjIwNDd0MTUuMTE4MTEtMzYuNzg3NDAycTAtMjIuMTczMjI4LTE1LjExODExLTM3LjI5MTMzOXQtMzcuMjkxMzM5LTE1LjExODExek01OTEuNjIyMDQ3IDg0LjY2MTQxN3EwLTguMDYyOTkyLTUuMDM5MzctMTIuNTk4NDI1dC0xMS4wODY2MTQtNC41MzU0MzNsLTEyOCAwcS01LjAzOTM3IDAtMTAuNTgyNjc3IDQuNTM1NDMzdC01LjU0MzMwNyAxMi41OTg0MjUgNS4wMzkzNyAxMi41OTg0MjUgMTEuMDg2NjE0IDQuNTM1NDMzbDEyOCAwcTYuMDQ3MjQ0IDAgMTEuMDg2NjE0LTQuNTM1NDMzdDUuMDM5MzctMTIuNTk4NDI1eiIvPjwvc3ZnPg==;" parent="1" vertex="1">
          <mxGeometry x="2085.6499999999996" y="-218" width="82.43" height="82.43" as="geometry" />
        </mxCell>
        <mxCell id="iJiPLEONd4pb6N0wiYaS-49" value="&lt;font style=&quot;font-size: 32px;&quot; color=&quot;#4a909b&quot;&gt;&lt;b&gt;微服务架构&lt;/b&gt;&lt;/font&gt;" style="text;html=1;strokeColor=none;fillColor=none;align=center;verticalAlign=middle;whiteSpace=wrap;rounded=0;" parent="1" vertex="1">
          <mxGeometry x="1887.49" y="701" width="203" height="30" as="geometry" />
        </mxCell>
      </root>
    </mxGraphModel>
  </diagram>
</mxfile>
